<svg width="13" height="13" viewBox="0 0 13 13" fill="none" xmlns="http://www.w3.org/2000/svg">
<mask id="path-1-inside-1_273_104351" fill="white">
<path d="M0 0.5C0 0.223857 0.223858 0 0.5 0H12.0714C12.3476 0 12.5714 0.223858 12.5714 0.5V12.0714C12.5714 12.3476 12.3476 12.5714 12.0714 12.5714H0.5C0.223857 12.5714 0 12.3476 0 12.0714V0.5Z"/>
</mask>
<path d="M-1 -1.5C-1 -2.32843 -0.328427 -3 0.5 -3H12.0714C12.8999 -3 13.5714 -2.32843 13.5714 -1.5L11.5714 3H1L-1 -1.5ZM13.5714 12.0714C13.5714 12.8999 12.8999 13.5714 12.0714 13.5714H0.5C-0.328427 13.5714 -1 12.8999 -1 12.0714L1 11.5714H11.5714L13.5714 12.0714ZM0.5 13.5714C-0.328427 13.5714 -1 12.8999 -1 12.0714V-1.5C-1 -2.32843 -0.328427 -3 0.5 -3L1 3V11.5714L0.5 13.5714ZM12.0714 -3C12.8999 -3 13.5714 -2.32843 13.5714 -1.5V12.0714C13.5714 12.8999 12.8999 13.5714 12.0714 13.5714L11.5714 11.5714V3L12.0714 -3Z" fill="white" mask="url(#path-1-inside-1_273_104351)"/>
</svg>
